<?xml version="1.0" encoding="UTF-8"?>
<svg version="1.1" xmlns="http://www.w3.org/2000/svg" width="1024" height="1024">
<path d="M0 0 C337.92 0 675.84 0 1024 0 C1024 337.92 1024 675.84 1024 1024 C686.08 1024 348.16 1024 0 1024 C0 686.08 0 348.16 0 0 Z " fill="#F6F6F6" transform="translate(0,0)"/>
<path d="M0 0 C224.31477927 0 224.31477927 0 276 48 C276.5990918 48.55526367 277.19818359 49.11052734 277.81542969 49.68261719 C310.97263114 80.78991437 329.94528039 124.46800984 331.9140625 169.84375 C331.94753396 171.22905848 331.97574752 172.61449946 332 174 C332.01514648 174.84949219 332.03029297 175.69898438 332.04589844 176.57421875 C332.1395456 183.05186116 332.10763712 189.52277829 332 196 C331.98324219 197.26199219 331.96648437 198.52398438 331.94921875 199.82421875 C330.41180646 238.34737811 315.43488036 277.06156724 290 306 C289.24847656 306.86109375 288.49695313 307.7221875 287.72265625 308.609375 C285.51240074 311.1029966 283.26606172 313.55709499 281 316 C280.42378906 316.64195312 279.84757812 317.28390625 279.25390625 317.9453125 C268.47525316 329.42013694 254.75724945 338.49180623 241 346 C240.37303223 346.34369629 239.74606445 346.68739258 239.10009766 347.04150391 C167.83541388 385.57615022 73.7521143 370 0 370 C0 247.9 0 125.8 0 0 Z " fill="#006BC7" transform="translate(351,324)"/>
<path d="M0 0 C108.03816719 0 108.03816719 0 143.4375 34.0625 C167.95028161 59.61497545 172.52351486 94.72271367 172.2109375 128.65234375 C171.57871585 158.96385967 162.94241951 188.43505719 141.6875 210.6875 C129.53432868 222.31592299 115.7029235 230.2733372 99.9375 235.8125 C98.79970093 236.22943115 98.79970093 236.22943115 97.63891602 236.65478516 C67.73916307 246.55010071 28.45247786 242 0 242 C0 162.14 0 82.28 0 0 Z " fill="#FEFEFE" transform="translate(429,388)"/>
<path d="M0 0 C4.95 1.98 4.95 1.98 10 4 C6.06329512 5.31223496 3.87511856 4.24296256 0 3 C0 2.01 0 1.02 0 0 Z " fill="#0858C0" transform="translate(571,338)"/>
</svg>
