<?xml version="1.0" encoding="UTF-8"?>
<svg version="1.1" xmlns="http://www.w3.org/2000/svg" width="1024" height="1024">
<path d="M0 0 C6.77603282 3.95640074 11.23003293 9.14309759 13.92103505 16.5298636 C15.20422404 21.47113412 14.97251661 26.51346001 14.94345093 31.58761597 C14.9481309 32.84512983 14.95281087 34.1026437 14.95763266 35.39826405 C14.97011329 38.87265038 14.96398579 42.34678832 14.95467401 45.82117534 C14.94787159 49.57451577 14.95837073 53.32781422 14.96661377 57.08114624 C14.97994138 64.42814004 14.97707748 71.7750418 14.96837585 79.12203918 C14.96159485 85.09526407 14.96068438 91.0684632 14.9639473 97.04169083 C14.964407 97.89253094 14.96486669 98.74337105 14.96534032 99.6199942 C14.96629952 101.34860062 14.96727217 103.07720704 14.9682581 104.80581345 C14.97680941 121.00908827 14.96698246 137.21231215 14.950857 153.41557862 C14.93745888 167.30816518 14.93977823 181.20067652 14.95361328 195.09326172 C14.969682 211.23629625 14.97598038 227.37928613 14.96677649 243.52232754 C14.96582087 245.2451109 14.96487776 246.96789427 14.9639473 248.69067764 C14.96348447 249.53825658 14.96302164 250.38583552 14.96254479 251.25909867 C14.95995842 257.22170248 14.96431839 263.18427788 14.97138596 269.14687729 C14.97981572 276.41841675 14.97749004 283.68985911 14.96154372 290.9613875 C14.95368008 294.66897413 14.95053661 298.37639908 14.96049118 302.08398438 C14.97113405 306.10893482 14.95839309 310.13347999 14.94345093 314.15841675 C14.95014309 315.32224345 14.95683526 316.48607015 14.96373022 317.68516433 C14.87985317 329.34870636 12.16388809 338.08020036 4.5625 347 C-2.48294684 353.42504307 -10.27373338 358.75189717 -18.25 363.9375 C-20.38785754 365.34462551 -22.52458554 366.75346872 -24.66015625 368.1640625 C-25.66965332 368.83083008 -26.67915039 369.49759766 -27.71923828 370.18457031 C-30.92896065 372.32822898 -34.06432504 374.54471691 -37.1875 376.8125 C-44.57927392 382.16951034 -52.15114512 387.25620542 -59.71343994 392.36761475 C-68.0397261 397.99692921 -76.32562748 403.67763517 -84.5625 409.4375 C-91.84104064 414.52569005 -99.16948381 419.51981831 -106.57910156 424.41479492 C-113.90987932 429.27541931 -121.11246837 434.31658511 -128.32324219 439.3527832 C-133.97564937 443.29739531 -139.65217204 447.18575354 -145.40625 450.98046875 C-148.56047254 453.08192887 -151.68681694 455.22055009 -154.81054688 457.36694336 C-163.24222823 463.15982715 -171.7005166 468.91345453 -180.1875 474.625 C-181.1990918 475.31207031 -182.21068359 475.99914062 -183.25292969 476.70703125 C-196.24035116 485.41455639 -196.24035116 485.41455639 -201.75 484.375 C-204.4375 483 -204.4375 483 -206.4375 480 C-206.61262035 477.20635414 -206.61262035 477.20635414 -206.50737 473.74429321 C-206.47373352 472.43266708 -206.44009705 471.12104095 -206.40544128 469.76966858 C-206.38255224 469.06104235 -206.3596632 468.35241611 -206.33608055 467.62231636 C-206.23715869 464.55107409 -206.16114755 461.47937568 -206.08357489 458.4075315 C-206.04158043 456.75196122 -205.99841551 455.09642028 -205.95416868 453.44090867 C-205.67320497 442.7808402 -205.5509374 432.11837782 -205.42116296 421.45557904 C-205.29395915 411.08378263 -205.11801758 400.71888205 -204.78149414 390.3515625 C-204.51427853 382.11044574 -204.35979737 373.87560702 -204.33306438 365.63008726 C-204.31491747 361.27120032 -204.24382892 356.92908632 -204.03580284 352.57478714 C-202.75744669 335.07378212 -202.75744669 335.07378212 -208.80834627 319.22436047 C-215.99700542 311.68957566 -225.33895074 306.78809389 -234.51058388 302.08993149 C-240.56001886 298.95375156 -246.08229051 295.0463629 -251.6875 291.1875 C-253.52375828 289.96920763 -255.36192963 288.75378682 -257.203125 287.54296875 C-260.71189043 285.19860659 -264.13918108 282.77418695 -267.53515625 280.26953125 C-275.05666545 274.75433379 -282.85324248 269.65253747 -290.625 264.5 C-292.22932433 263.43383096 -293.83348947 262.36742234 -295.4375 261.30078125 C-298.62347019 259.18251356 -301.81018046 257.06536725 -304.99755859 254.94921875 C-310.98314786 250.97454749 -316.96050811 246.98758471 -322.9375 243 C-324.71870115 241.81242672 -326.49994863 240.62492294 -328.28125 239.4375 C-334 235.625 -339.71875 231.8125 -345.4375 228 C-345.4375 295.98 -345.4375 363.96 -345.4375 434 C-350.4375 435 -350.4375 435 -352.26416016 434.21826172 C-352.82925293 433.79303223 -353.3943457 433.36780273 -353.9765625 432.9296875 C-354.62923096 432.45225098 -355.28189941 431.97481445 -355.9543457 431.48291016 C-356.65003662 430.9522998 -357.34572754 430.42168945 -358.0625 429.875 C-359.58868029 428.75362315 -361.11606796 427.63388806 -362.64453125 426.515625 C-363.82909912 425.64067383 -363.82909912 425.64067383 -365.03759766 424.74804688 C-368.8799632 421.94933504 -372.81454252 419.29038732 -376.75 416.625 C-384.26766921 411.50579955 -391.72957564 406.31117526 -399.17382812 401.0859375 C-404.18173982 397.57298308 -409.20416346 394.08323613 -414.25 390.625 C-443.55569844 370.51147333 -443.55569844 370.51147333 -454.4375 362.4375 C-455.36079102 361.75989624 -455.36079102 361.75989624 -456.30273438 361.06860352 C-466.66315137 353.28247992 -473.57371114 344.80942198 -476.4375 332 C-476.82510085 328.36377767 -476.84797927 324.76921657 -476.82518005 321.11476135 C-476.83056559 320.06450537 -476.83595113 319.01424939 -476.84149987 317.93216747 C-476.85572853 314.43715997 -476.84868817 310.94253394 -476.84155273 307.44750977 C-476.84725892 304.93189186 -476.85422414 302.41627654 -476.86235046 299.90066528 C-476.8784103 293.79152975 -476.88038825 287.68253349 -476.87513756 281.57338328 C-476.87108616 276.60517012 -476.8725509 271.63698728 -476.87788582 266.66877556 C-476.87863424 265.96003857 -476.87938266 265.25130158 -476.88015376 264.52108772 C-476.88168533 263.08101709 -476.88322368 261.64094648 -476.88476873 260.20087587 C-476.89847678 246.71537509 -476.89306788 233.22993242 -476.88158352 219.74443298 C-476.8716515 207.42400947 -476.88459424 195.10373616 -476.90851771 182.78333581 C-476.93293577 170.11212145 -476.94251003 157.44097697 -476.93586498 144.76973957 C-476.93237895 137.66402533 -476.93456407 130.55842655 -476.95211601 123.45273018 C-476.96841816 116.77051931 -476.96361442 110.08864044 -476.94481087 103.40642166 C-476.94112883 100.95833452 -476.94422214 98.51022609 -476.95469666 96.06215858 C-476.96793391 92.71185159 -476.95633372 89.36248932 -476.93870544 86.01222229 C-476.94831045 85.05111103 -476.95791546 84.08999977 -476.96781152 83.09976393 C-476.8293046 70.24348352 -471.17602371 59.87838548 -462.5625 50.625 C-456.85839621 45.12969867 -450.31445551 40.92520691 -443.74414062 36.55371094 C-439.57610471 33.74619818 -435.48206162 30.83310366 -431.375 27.9375 C-425.31778609 23.69096701 -419.25305435 19.45636569 -413.125 15.3125 C-412.54548584 14.91474365 -411.96597168 14.5169873 -411.36889648 14.10717773 C-403.98324555 9.15785207 -397.12181252 6.89312277 -388.3125 6.6875 C-387.27867187 6.65011719 -386.24484375 6.61273438 -385.1796875 6.57421875 C-375.24230983 7.70488072 -367.1282698 12.6633501 -358.875 18 C-357.82707275 18.66644531 -356.77914551 19.33289063 -355.69946289 20.01953125 C-348.07505657 24.88798086 -340.53085447 29.87355671 -333.02734375 34.92578125 C-327.8637558 38.39712932 -322.6521909 41.79358107 -317.4375 45.1875 C-316.4676416 45.81922119 -315.4977832 46.45094238 -314.49853516 47.10180664 C-310.48496605 49.71551476 -306.47063442 52.32804816 -302.45556641 54.93945312 C-270.20423688 75.92566266 -238.29241371 97.41837854 -206.4375 119 C-198.05543028 113.75216026 -189.85326652 108.26229208 -181.6875 102.6875 C-166.43256167 92.28544369 -151.05986503 82.07043589 -135.625 71.9375 C-134.08585179 70.92660164 -132.54670798 69.9156966 -131.00756836 68.90478516 C-113.64313001 57.5019861 -96.26266675 46.12387994 -78.84008789 34.81005859 C-73.51417625 31.35136666 -68.19258301 27.88613356 -62.87426758 24.41577148 C-60.92805913 23.14618152 -58.98128823 21.87745332 -57.03393555 20.60961914 C-52.29511049 17.52350894 -47.56472115 14.4259731 -42.8515625 11.30078125 C-41.96017578 10.71296875 -41.06878906 10.12515625 -40.15039062 9.51953125 C-38.48664592 8.42208757 -36.82619442 7.31962606 -35.16992188 6.2109375 C-24.22651893 -0.98498075 -12.91116838 -5.80608944 0 0 Z " fill="#008EFE" transform="translate(734.4375,290)"/>
<path d="M0 0 C1.03382813 -0.03738281 2.06765625 -0.07476562 3.1328125 -0.11328125 C13.07019017 1.01738072 21.1842302 5.9758501 29.4375 11.3125 C31.00939087 12.31216797 31.00939087 12.31216797 32.61303711 13.33203125 C40.23744343 18.20048086 47.78164553 23.18605671 55.28515625 28.23828125 C60.4487442 31.70962932 65.6603091 35.10608107 70.875 38.5 C71.8448584 39.13172119 72.8147168 39.76344238 73.81396484 40.41430664 C77.82753395 43.02801476 81.84186558 45.64054816 85.85693359 48.25195312 C99.34983053 57.03189388 112.78973726 65.88815726 126.1875 74.8125 C126.84656342 75.25101288 127.50562683 75.68952576 128.18466187 76.1413269 C128.83101593 76.57156158 129.47737 77.00179626 130.14331055 77.44506836 C130.77969295 77.86581383 131.41607534 78.2865593 132.07174206 78.72005463 C133.51317842 79.68920493 134.94187224 80.67770466 136.35420895 81.68879128 C141.22004249 85.10817702 146.14682676 87.99905117 151.46802866 90.6292212 C179.47483533 104.65956957 179.47483533 104.65956957 183.95655632 117.14050674 C187.25571677 129.58577497 186.25054769 142.91268358 185.62657571 155.63702512 C185.39250282 161.22991754 185.37333986 166.82384951 185.32963562 172.42088318 C185.21538712 182.98093893 184.9129875 193.5265303 184.5397045 204.08026022 C184.12361606 216.10998987 183.92210831 228.14047691 183.7369734 240.17562973 C183.35197914 264.89588956 182.70282922 289.60337942 181.875 314.3125 C177.66005521 311.92079819 173.56426113 309.51220274 169.56640625 306.765625 C168.58365723 306.09329834 167.6009082 305.42097168 166.58837891 304.72827148 C165.54858887 304.01356689 164.50879883 303.2988623 163.4375 302.5625 C161.20770746 301.03675695 158.97745374 299.51172723 156.74609375 297.98828125 C155.89537292 297.40718346 155.89537292 297.40718346 155.02746582 296.81434631 C148.09927954 292.0896516 141.10843007 287.45912937 134.10766602 282.84277344 C129.581055 279.84379948 125.12396596 276.78983552 120.75390625 273.56640625 C113.24088368 268.05556821 105.45139657 262.9598258 97.6875 257.8125 C96.08317567 256.74633096 94.47901053 255.67992234 92.875 254.61328125 C89.68902981 252.49501356 86.50231954 250.37786725 83.31494141 248.26171875 C77.32935214 244.28704749 71.35199189 240.30008471 65.375 236.3125 C63.59379885 235.12492672 61.81255137 233.93742294 60.03125 232.75 C54.3125 228.9375 48.59375 225.125 42.875 221.3125 C42.875 289.2925 42.875 357.2725 42.875 427.3125 C37.875 428.3125 37.875 428.3125 36.04833984 427.53076172 C35.48324707 427.10553223 34.9181543 426.68030273 34.3359375 426.2421875 C33.68326904 425.76475098 33.03060059 425.28731445 32.3581543 424.79541016 C31.66246338 424.2647998 30.96677246 423.73418945 30.25 423.1875 C28.72381971 422.06612315 27.19643204 420.94638806 25.66796875 419.828125 C24.48340088 418.95317383 24.48340088 418.95317383 23.27490234 418.06054688 C19.4325368 415.26183504 15.49795748 412.60288732 11.5625 409.9375 C4.04483079 404.81829955 -3.41707564 399.62367526 -10.86132812 394.3984375 C-15.86923982 390.88548308 -20.89166346 387.39573613 -25.9375 383.9375 C-55.24319844 363.82397333 -55.24319844 363.82397333 -66.125 355.75 C-67.04829102 355.07239624 -67.04829102 355.07239624 -67.99023438 354.38110352 C-78.35065137 346.59497992 -85.26121114 338.12192198 -88.125 325.3125 C-88.51260085 321.67627767 -88.53547927 318.08171657 -88.51268005 314.42726135 C-88.51806559 313.37700537 -88.52345113 312.32674939 -88.52899987 311.24466747 C-88.54322853 307.74965997 -88.53618817 304.25503394 -88.52905273 300.76000977 C-88.53475892 298.24439186 -88.54172414 295.72877654 -88.54985046 293.21316528 C-88.5659103 287.10402975 -88.56788825 280.99503349 -88.56263756 274.88588328 C-88.55858616 269.91767012 -88.5600509 264.94948728 -88.56538582 259.98127556 C-88.56613424 259.27253857 -88.56688266 258.56380158 -88.56765376 257.83358772 C-88.56918533 256.39351709 -88.57072368 254.95344648 -88.57226873 253.51337587 C-88.58597678 240.02787509 -88.58056788 226.54243242 -88.56908352 213.05693298 C-88.5591515 200.73650947 -88.57209424 188.41623616 -88.59601771 176.09583581 C-88.62043577 163.42462145 -88.63001003 150.75347697 -88.62336498 138.08223957 C-88.61987895 130.97652533 -88.62206407 123.87092655 -88.63961601 116.76523018 C-88.65591816 110.08301931 -88.65111442 103.40114044 -88.63231087 96.71892166 C-88.62862883 94.27083452 -88.63172214 91.82272609 -88.64219666 89.37465858 C-88.65543391 86.02435159 -88.64383372 82.67498932 -88.62620544 79.32472229 C-88.63581045 78.36361103 -88.64541546 77.40249977 -88.65531152 76.41226393 C-88.5168046 63.55598352 -82.86352371 53.19088548 -74.25 43.9375 C-68.54589621 38.44219867 -62.00195551 34.23770691 -55.43164062 29.86621094 C-51.26360471 27.05869818 -47.16956162 24.14560366 -43.0625 21.25 C-37.00528609 17.00346701 -30.94055435 12.76886569 -24.8125 8.625 C-23.94322876 8.02836548 -23.94322876 8.02836548 -23.05639648 7.41967773 C-15.67074555 2.47035207 -8.80931252 0.20562277 0 0 Z " fill="#1AD1DC" transform="translate(346.125,296.6875)"/>
<path d="M0 0 C0 0.66 0 1.32 0 2 C-0.66 2 -1.32 2 -2 2 C-2.33 2.66 -2.66 3.32 -3 4 C-4.9375 5.0625 -4.9375 5.0625 -7 6 C-7.99 6.495 -7.99 6.495 -9 7 C-9.66 6.34 -10.32 5.68 -11 5 C-9.73461631 4.15841464 -8.46246221 3.32700252 -7.1875 2.5 C-6.47980469 2.0359375 -5.77210938 1.571875 -5.04296875 1.09375 C-3 0 -3 0 0 0 Z " fill="#2087FA" transform="translate(608,358)"/>
<path d="M0 0 C3.87132028 0.57352893 6.08172796 2.48704352 9 5 C7.02 5.33 5.04 5.66 3 6 C2.01 4.02 1.02 2.04 0 0 Z " fill="#36CDDA" transform="translate(382,314)"/>
</svg>
